<svg xmlns="http://www.w3.org/2000/svg" width="32" height="32" viewBox="0 0 32 32">
    <g data-name="1">
        <path style="fill:none" d="M0 0h32v32H0z"/>
        <g data-name="타원 2388" transform="translate(11.5 6.5)" style="stroke:#0f1f2e;fill:none">
            <circle cx="2" cy="2" r="2" style="stroke:none"/>
            <circle cx="2" cy="2" r="1.5" style="fill:none"/>
        </g>
        <path data-name="패스 208689" d="M13.375 10.536a6.953 6.953 0 0 1-5.728 2.873 7.147 7.147 0 0 1-4.1-13" transform="translate(7.5 13.591)" style="stroke-linecap:round;stroke-miterlimit:10;stroke:#0f1f2e;fill:none"/>
        <g data-name="합치기 218" style="fill:#fff">
            <path d="M-297.861 1329.768c-.446 0-.862-.24-1.085-.625l-2.325-4.029-.145-.25h-4.738c-.077 0-.154-.007-.23-.02l-.04-.008-.04-.001a1.256 1.256 0 0 1-1.177-.926l-1.682-6.28a1.24 1.24 0 0 1 .125-.947 1.242 1.242 0 0 1 1.083-.626c.565 0 1.06.382 1.207.927l1.343 5.01.099.371H-300.653c.538 0 1.014.343 1.185.853l.016.048.025.044 2.646 4.584c.167.29.212.626.125.949a1.249 1.249 0 0 1-1.206.927z" style="stroke:none" transform="translate(322.903 -1304.364)"/>
            <path d="M-297.861 1329.268a.746.746 0 0 0 .648-1.125l-2.697-4.672-.032-.095a.75.75 0 0 0-.711-.512h-5.197l-1.54-5.751a.751.751 0 0 0-1.45.387l1.682 6.28c.085.319.376.547.706.555l.08.002.08.015a.76.76 0 0 0 .138.012h5.027l2.614 4.529a.754.754 0 0 0 .652.375m0 1a1.75 1.75 0 0 1-1.518-.875l-2.325-4.029h-4.45c-.11 0-.217-.01-.321-.03a1.75 1.75 0 0 1-1.649-1.295l-1.682-6.28a1.75 1.75 0 0 1 3.381-.905l1.343 5.01h4.429c.772 0 1.427.5 1.66 1.195l2.645 4.584a1.75 1.75 0 0 1-1.513 2.625z" style="fill:#0f1f2e;stroke:none" transform="translate(322.903 -1304.364)"/>
        </g>
    </g>
</svg>
