<svg xmlns="http://www.w3.org/2000/svg" width="32" height="32" viewBox="0 0 32 32">
    <g data-name="1">
        <path style="fill:none" d="M0 0h32v32H0z"/>
        <g data-name="그룹 14052">
            <g data-name="그룹 14053">
                <g data-name="사각형 23821" style="stroke:#0f1f2e;fill:#3cdc87">
                    <path d="M0 0h1a5 5 0 0 1 5 5v5a2 2 0 0 1-2 2H0V0z" style="stroke:none" transform="translate(22 11)"/>
                    <path d="M.5.5H1A4.5 4.5 0 0 1 5.5 5v5A1.5 1.5 0 0 1 4 11.5H.5V.5z" style="fill:none" transform="translate(22 11)"/>
                </g>
                <g data-name="사각형 23823" style="fill:#fff;stroke:#0f1f2e">
                    <path d="M0 0h6v3a2 2 0 0 1-2 2H0V0z" style="stroke:none" transform="translate(22 18)"/>
                    <path d="M.5.5h5V3A1.5 1.5 0 0 1 4 4.5H.5v-4z" style="fill:none" transform="translate(22 18)"/>
                </g>
                <g data-name="사각형 23822" transform="translate(4 8)" style="fill:#fff;stroke:#0f1f2e">
                    <rect width="19" height="15" rx="2" style="stroke:none"/>
                    <rect x=".5" y=".5" width="18" height="14" rx="1.5" style="fill:none"/>
                </g>
                <g data-name="타원 2389" transform="rotate(-90 16.5 9.5)" style="fill:#fff;stroke:#0f1f2e">
                    <circle cx="3" cy="3" r="3" style="stroke:none"/>
                    <circle cx="3" cy="3" r="2.5" style="fill:none"/>
                </g>
                <g data-name="타원 2390" transform="rotate(-90 22.5 3.5)" style="fill:#fff;stroke:#0f1f2e">
                    <circle cx="3" cy="3" r="3" style="stroke:none"/>
                    <circle cx="3" cy="3" r="2.5" style="fill:none"/>
                </g>
                <path data-name="선 520" transform="translate(8.5 12.5)" style="stroke-linecap:round;stroke:#0f1f2e;fill:none" d="M0 0v5.5"/>
                <path data-name="선 521" transform="translate(13.5 12.5)" style="stroke-linecap:round;stroke:#0f1f2e;fill:none" d="M0 0v5.5"/>
                <path data-name="선 522" transform="translate(18.5 12.5)" style="stroke-linecap:round;stroke:#0f1f2e;fill:none" d="M0 0v5.5"/>
            </g>
        </g>
    </g>
</svg>
