<svg xmlns="http://www.w3.org/2000/svg" width="32" height="32" viewBox="0 0 32 32">
    <path style="fill:none" d="M0 0h32v32H0z"/>
    <g data-name="사각형 4047" style="stroke:#0f1f2e;fill:none">
        <path d="M0 0h6v1a3 3 0 0 1-3 3 3 3 0 0 1-3-3V0z" style="stroke:none" transform="translate(7 23)"/>
        <path d="M.5.5h5V1A2.5 2.5 0 0 1 3 3.5 2.5 2.5 0 0 1 .5 1V.5z" style="fill:none" transform="translate(7 23)"/>
    </g>
    <g data-name="사각형 4048" style="stroke:#0f1f2e;fill:none">
        <path d="M0 0h6v1a3 3 0 0 1-3 3 3 3 0 0 1-3-3V0z" style="stroke:none" transform="translate(19 23)"/>
        <path d="M.5.5h5V1A2.5 2.5 0 0 1 3 3.5 2.5 2.5 0 0 1 .5 1V.5z" style="fill:none" transform="translate(19 23)"/>
    </g>
    <g data-name="사각형 4044" style="stroke:#0f1f2e;fill:none">
        <path d="M6 0h6a6 6 0 0 1 6 6v2H0V6a6 6 0 0 1 6-6z" style="stroke:none" transform="translate(7 9)"/>
        <path d="M6 .5h6A5.5 5.5 0 0 1 17.5 6v1.5H.5V6A5.5 5.5 0 0 1 6 .5z" style="fill:none" transform="translate(7 9)"/>
    </g>
    <g data-name="사각형 4050" transform="translate(4 16)" style="stroke:#0f1f2e;fill:none">
        <rect width="24" height="8" rx="4" style="stroke:none"/>
        <rect x=".5" y=".5" width="23" height="7" rx="3.5" style="fill:none"/>
    </g>
    <g data-name="타원 1168" transform="translate(9 18)" style="fill:#fff;stroke:#0f1f2e">
        <circle cx="2" cy="2" r="2" style="stroke:none"/>
        <circle cx="2" cy="2" r="1.5" style="fill:none"/>
    </g>
    <g data-name="타원 1169" transform="translate(19 18)" style="fill:#fff;stroke:#0f1f2e">
        <circle cx="2" cy="2" r="2" style="stroke:none"/>
        <circle cx="2" cy="2" r="1.5" style="fill:none"/>
    </g>
    <g data-name="사각형 23817" style="fill:#3cdc87;stroke:#0f1f2e">
        <path d="M2 0h4a2 2 0 0 1 2 2v2H0V2a2 2 0 0 1 2-2z" style="stroke:none" transform="translate(12 6)"/>
        <path d="M2 .5h4A1.5 1.5 0 0 1 7.5 2v1.5h-7V2A1.5 1.5 0 0 1 2 .5z" style="fill:none" transform="translate(12 6)"/>
    </g>
</svg>
