<svg xmlns="http://www.w3.org/2000/svg" width="20" height="20" viewBox="0 0 20 20">
    <path style="fill:none" d="M0 0h20v20H0z"/>
    <g data-name="사각형 4047" style="stroke:#0f1f2e;fill:none">
        <path d="M0 0h3v1.5A1.5 1.5 0 0 1 1.5 3 1.5 1.5 0 0 1 0 1.5V0z" style="stroke:none" transform="translate(4 14)"/>
        <path d="M.5.5h2v1a1 1 0 0 1-1 1 1 1 0 0 1-1-1v-1z" style="fill:none" transform="translate(4 14)"/>
    </g>
    <g data-name="빼기 89" style="fill:#0f1f2e">
        <path d="M-7188.5-7913.352v-1.5c0-1.93 1.57-3.5 3.5-3.5h4.001-4a3.505 3.505 0 0 0-3.501 3.5v1.5z" style="stroke:none" transform="translate(7193 7922.852)"/>
        <path d="M-7177-7912.852h-12v-2c0-2.206 1.794-4 4-4h4.001a4.004 4.004 0 0 1 3.999 4v2zm-8-5a3.004 3.004 0 0 0-3 3v1h10v-1c0-1.654-1.345-3-2.999-3h-4z" style="fill:#0f1f2e;stroke:none" transform="translate(7193 7922.852)"/>
    </g>
    <g data-name="빼기 90" style="fill:none">
        <path d="M-7189-7731.852h10a3 3 0 0 1 3 3 3 3 0 0 1-3 3h-10a3 3 0 0 1-3-3 3 3 0 0 1 3-3z" style="stroke:none" transform="translate(7194 7740.852)"/>
        <path d="M-7189-7730.852c-1.103 0-2 .897-2 2s.897 2 2 2h10c1.103 0 2-.897 2-2s-.897-2-2-2h-10m0-1h10a3 3 0 0 1 0 6h-10a3 3 0 0 1 0-6z" style="fill:#0f1f2e;stroke:none" transform="translate(7194 7740.852)"/>
    </g>
    <g data-name="사각형 4609" style="stroke:#0f1f2e;fill:none">
        <path d="M0 0h3v1.5A1.5 1.5 0 0 1 1.5 3 1.5 1.5 0 0 1 0 1.5V0z" style="stroke:none" transform="translate(13 14)"/>
        <path d="M.5.5h2v1a1 1 0 0 1-1 1 1 1 0 0 1-1-1v-1z" style="fill:none" transform="translate(13 14)"/>
    </g>
    <g data-name="타원 2286" transform="translate(5 11)" style="stroke:#0f1f2e;fill:none">
        <circle cx="1" cy="1" r="1" style="stroke:none"/>
        <circle cx="1" cy="1" r=".5" style="fill:none"/>
    </g>
    <g data-name="타원 2287" transform="translate(13 11)" style="stroke:#0f1f2e;fill:none">
        <circle cx="1" cy="1" r="1" style="stroke:none"/>
        <circle cx="1" cy="1" r=".5" style="fill:none"/>
    </g>
</svg>
