<svg xmlns="http://www.w3.org/2000/svg" width="40" height="21.429" viewBox="0 0 40 21.429">
    <g data-name="그룹 35761">
        <path data-name="패스 35219" d="M511.465 355.445a10.714 10.714 0 1 1-10.714-10.714 10.715 10.715 0 0 1 10.714 10.714" transform="translate(-471.464 -344.731)" style="fill:#fff"/>
        <path data-name="패스 35220" d="M530.233 378.07h-6.021v-6.021a.418.418 0 1 0-.837 0v6.021h-6.021a.418.418 0 0 0 0 .837h6.021v6.021a.418.418 0 1 0 .837 0v-6.021h6.021a.418.418 0 0 0 0-.837" transform="translate(-494.507 -367.774)" style="fill:#3ddb87"/>
        <path data-name="패스 35221" d="M364.748 353.162a6.858 6.858 0 0 1 12.933 0 .266.266 0 0 1-.25.355H365a.266.266 0 0 1-.25-.355m11.149 7.575a.176.176 0 0 0-.268-.045 6.856 6.856 0 0 1-10.881-2.963.266.266 0 0 1 .25-.355h14.25a10.77 10.77 0 0 1-.177-1.928 10.662 10.662 0 0 1 1.427-5.346 10.716 10.716 0 1 0-2.883 13.931.178.178 0 0 0 .047-.231z" transform="translate(-360.5 -344.731)" style="fill:#0f1f2e"/>
    </g>
</svg>
